<?xml version="1.0" encoding="UTF-8"?>
<svg viewBox="0 0 250 60" fill="none" xmlns="http://www.w3.org/2000/svg"><path d="M19.2093 35.214L37.4052 57.2877C37.8259 57.8766 37.5735 58.5497 36.8163 58.5497H28.2231C26.7087 58.5497 26.4525 58.3814 25.4429 57.2036L11.7941 40.2697L9.68688 42.2086V56.867C9.68688 58.0449 9.18208 58.5535 8.00038 58.5535H1.6865C0.508628 58.5535 0 58.0487 0 56.867V2.19139C0 1.00969 0.504804 0.504883 1.6865 0.504883H8.0042C9.18208 0.504883 9.69071 1.00969 9.69071 2.19139V32.8582L24.0126 18.4522C25.1064 17.3585 25.3626 17.2743 26.877 17.2743H35.4701C36.1432 17.2743 36.3956 18.0315 35.9749 18.4522L19.2093 35.2178V35.214Z" fill="currentColor"></path><path d="M81.2995 37.9099C81.2995 50.0405 72.0332 59.5629 59.3099 59.5629C46.5865 59.5629 37.3203 50.0443 37.3203 37.9099C37.3203 25.7755 46.5865 16.2568 59.3099 16.2568C72.0332 16.2568 81.2995 25.7755 81.2995 37.9099ZM47.011 37.9099C47.011 45.0689 52.0667 50.6332 59.3099 50.6332C66.0483 50.6332 71.6087 45.4093 71.6087 37.9099C71.6087 30.4105 66.1324 25.1903 59.3099 25.1903C51.9788 25.1903 47.011 31.0032 47.011 37.9099Z" fill="currentColor"></path><path d="M120.476 52.6527C117.443 56.8632 112.219 59.5593 106.49 59.5593C95.0327 59.5593 86.3555 50.2931 86.3555 37.9063C86.3555 25.5195 95.0327 16.2532 106.49 16.2532C112.219 16.2532 117.443 18.697 120.476 22.9075V2.19139C120.476 1.00969 120.98 0.504883 122.162 0.504883H128.48C129.658 0.504883 130.166 1.00969 130.166 2.19139V56.867C130.166 58.0449 129.662 58.5535 128.48 58.5535H122.162C120.984 58.5535 120.476 58.0487 120.476 56.867V52.6527ZM108.513 50.7138C115.336 50.7138 120.896 45.4898 120.896 37.9101C120.896 31.0876 115.756 25.1064 108.513 25.1064C101.27 25.1064 96.1303 31.2559 96.1303 37.9101C96.1303 45.2412 101.607 50.7138 108.513 50.7138Z" fill="currentColor"></path><path d="M145.415 12.0465C142.214 12.0465 139.434 9.26621 139.434 6.0653C139.434 2.69611 142.214 0 145.415 0C148.868 0 151.48 2.86438 151.48 6.0653C151.48 9.26621 148.868 12.0465 145.415 12.0465ZM140.611 18.9531C140.611 17.7752 141.116 17.2666 142.298 17.2666H148.7C149.878 17.2666 150.386 17.7714 150.386 18.9531V56.8631C150.386 58.041 149.882 58.5496 148.7 58.5496H142.298C141.12 58.5496 140.611 58.0448 140.611 56.8631V18.9531Z" fill="currentColor"></path><path d="M192.257 52.6524C189.224 56.8629 184 59.559 178.272 59.559C166.814 59.559 158.137 50.2928 158.137 37.906C158.137 25.5191 166.814 16.2529 178.272 16.2529C184 16.2529 189.224 18.6966 192.257 22.9072V18.9452C192.257 17.7673 192.762 17.2587 193.943 17.2587H200.261C201.439 17.2587 201.948 17.7635 201.948 18.9452V56.8552C201.948 58.0331 201.443 58.5417 200.261 58.5417H193.943C192.766 58.5417 192.257 58.0369 192.257 56.8552V52.6447V52.6524ZM180.295 50.7135C187.117 50.7135 192.678 45.4895 192.678 37.9098C192.678 31.0873 187.538 25.1061 180.295 25.1061C173.051 25.1061 167.912 31.2556 167.912 37.9098C167.912 45.2409 173.388 50.7135 180.295 50.7135Z" fill="currentColor"></path><path d="M231.6 35.214L249.796 57.2877C250.216 57.8766 249.964 58.5497 249.207 58.5497H240.614C239.099 58.5497 238.843 58.3814 237.833 57.2036L224.185 40.2697L222.077 42.2086V56.867C222.077 58.0449 221.573 58.5535 220.391 58.5535H214.073C212.895 58.5535 212.387 58.0487 212.387 56.867V2.19139C212.387 1.00969 212.892 0.504883 214.073 0.504883H220.391C221.569 0.504883 222.077 1.00969 222.077 2.19139V32.8582L236.399 18.4522C237.493 17.3585 237.749 17.2743 239.264 17.2743H247.857C248.53 17.2743 248.782 18.0315 248.362 18.4522L231.596 35.2178L231.6 35.214Z" fill="currentColor"></path></svg>